<svg width="156" height="38" viewBox="0 0 156 38" fill="none" xmlns="http://www.w3.org/2000/svg">
<path d="M12.654 7.558L12.844 6.57C12.7427 5.202 11.818 4.518 10.07 4.518C9.05667 4.518 8.17 4.88533 7.41 5.62C6.67533 6.32933 6.308 7.08933 6.308 7.9C6.308 8.68533 6.63733 9.382 7.296 9.99C7.98 10.5727 8.79067 11.1047 9.728 11.586C10.6907 12.042 11.6407 12.5487 12.578 13.106C13.5407 13.638 14.3513 14.3347 15.01 15.196C15.694 16.0573 16.036 17.0327 16.036 18.122C16.036 20.3767 15.1493 22.15 13.376 23.442C11.6027 24.734 9.69 25.38 7.638 25.38C5.586 25.38 3.876 25.0127 2.508 24.278C1.14 23.518 0.456 22.378 0.456 20.858C0.456 20.0473 0.734667 19.3127 1.292 18.654C1.84933 17.9953 2.64733 17.666 3.686 17.666C4.09133 17.666 4.45867 17.78 4.788 18.008C5.11733 18.236 5.32 18.54 5.396 18.92C5.396 19.3 5.168 19.49 4.712 19.49C3.85067 19.49 3.42 19.8573 3.42 20.592C3.44533 21.428 3.838 22.188 4.598 22.872C5.38333 23.556 6.47267 23.898 7.866 23.898C9.28467 23.898 10.488 23.4167 11.476 22.454C12.4893 21.4913 12.996 20.326 12.996 18.958C12.996 18.046 12.654 17.2227 11.97 16.488C11.286 15.7533 10.4627 15.1327 9.5 14.626C8.53733 14.094 7.562 13.562 6.574 13.03C5.61133 12.498 4.788 11.852 4.104 11.092C3.42 10.332 3.078 9.47067 3.078 8.508C3.078 6.81067 3.8 5.45533 5.244 4.442C6.71333 3.42867 8.37267 2.922 10.222 2.922C11.4633 2.922 12.5907 3.17533 13.604 3.682C14.6173 4.18867 15.1367 4.96133 15.162 6C15.162 6.608 15.01 7.11467 14.706 7.52C14.402 7.92533 13.984 8.128 13.452 8.128C12.9453 8.128 12.6793 7.938 12.654 7.558ZM28.8616 25.19C27.8736 25.19 27.1263 24.9873 26.6196 24.582C26.4423 24.4047 26.3536 23.9613 26.3536 23.252C26.3536 22.5173 26.3789 21.542 26.4296 20.326C25.7709 21.9727 25.1123 23.2013 24.4536 24.012C23.8203 24.7973 22.9969 25.19 21.9836 25.19C20.9703 25.19 20.0836 24.7213 19.3236 23.784C18.5636 22.8213 18.1836 21.3267 18.1836 19.3C18.1836 17.248 18.7536 15.4367 19.8936 13.866C21.0589 12.2953 22.5789 11.51 24.4536 11.51C25.2643 11.51 26.1763 12.042 27.1896 13.106C27.3923 12.8273 27.7469 12.498 28.2536 12.118C28.7856 11.7127 29.2289 11.51 29.5836 11.51C29.9636 11.51 30.1536 11.9913 30.1536 12.954C30.1536 13.2073 30.0776 13.7013 29.9256 14.436C29.7989 15.1707 29.6469 15.7027 29.4696 16.032C29.2416 16.6147 29.1276 18.6793 29.1276 22.226C29.1276 22.91 29.2036 23.252 29.3556 23.252C29.7863 23.2267 30.3816 22.6947 31.1416 21.656C31.9016 20.592 32.6489 19.2367 33.3836 17.59C34.1436 15.9433 34.5996 15.12 34.7516 15.12C34.9289 15.12 35.0176 15.2213 35.0176 15.424C35.0176 16.1333 34.6503 17.2607 33.9156 18.806C31.9143 23.062 30.2296 25.19 28.8616 25.19ZM24.2256 13.03C23.5163 13.03 22.7563 13.562 21.9456 14.626C21.1603 15.6647 20.7676 16.8933 20.7676 18.312C20.7676 19.7307 20.9703 20.896 21.3756 21.808C21.8063 22.72 22.3636 23.176 23.0476 23.176C23.8836 23.176 25.1123 21.086 26.7336 16.906C26.7589 16.7033 26.7843 16.3613 26.8096 15.88C26.8603 15.3733 26.8983 14.9933 26.9236 14.74C26.6956 14.3347 26.2903 13.9547 25.7076 13.6C25.1503 13.22 24.6563 13.03 24.2256 13.03ZM37.4805 23.328C38.3925 23.328 39.1905 22.8593 39.8745 21.922C40.5585 20.9593 41.0651 19.794 41.3945 18.426C40.4825 18.1473 39.7858 17.666 39.3045 16.982C38.8231 16.2727 38.5825 15.462 38.5825 14.55C38.5825 13.638 38.8105 12.84 39.2665 12.156C39.7478 11.472 40.4318 11.13 41.3185 11.13C41.8505 11.13 42.2558 11.472 42.5345 12.156C42.8131 12.8147 42.9525 13.562 42.9525 14.398C42.9525 15.234 42.8891 16.07 42.7625 16.906C43.1425 17.058 43.5478 17.134 43.9785 17.134C44.9665 17.134 45.9165 16.678 46.8285 15.766C47.2845 15.31 47.5885 15.082 47.7405 15.082C47.9178 15.082 48.0065 15.2087 48.0065 15.462C48.0065 15.7153 47.8418 16.0193 47.5125 16.374C46.1698 17.8687 44.4725 18.616 42.4205 18.616C41.9391 20.4653 41.1918 22.0233 40.1785 23.29C39.1651 24.5567 37.9238 25.19 36.4545 25.19C35.5931 25.19 34.8838 24.8227 34.3265 24.088C33.3891 22.8973 32.9205 21.1493 32.9205 18.844C32.9205 18.0587 32.9838 17.0453 33.1105 15.804C33.2371 14.5627 33.3765 13.8027 33.5285 13.524C33.7058 13.2453 34.1111 12.9033 34.7445 12.498C35.4031 12.0927 35.8591 11.89 36.1125 11.89C36.4925 11.89 36.6825 12.118 36.6825 12.574C36.6825 13.866 36.3531 15.272 35.6945 16.792C35.6945 18.5907 35.8338 20.136 36.1125 21.428C36.4165 22.6947 36.8725 23.328 37.4805 23.328ZM40.9385 12.574C40.7358 12.574 40.6345 12.992 40.6345 13.828C40.6345 14.664 41.0145 15.462 41.7745 16.222C41.8251 15.918 41.8505 15.614 41.8505 15.31C41.8505 13.486 41.5465 12.574 40.9385 12.574ZM57.9096 16.754C58.923 16.4247 59.6196 16.146 59.9996 15.918C60.405 15.6647 60.709 15.4747 60.9116 15.348L61.3676 15.082C61.4943 15.006 61.5956 14.968 61.6716 14.968C61.8743 14.968 61.9756 15.082 61.9756 15.31C61.9756 15.538 61.583 15.9433 60.7976 16.526C60.0123 17.0833 59.037 17.59 57.8716 18.046C57.6943 20.174 57.023 21.8967 55.8576 23.214C54.6923 24.5313 53.033 25.19 50.8796 25.19C49.309 25.19 48.1056 24.5693 47.2696 23.328C46.4336 22.0613 46.0156 20.592 46.0156 18.92C46.0156 17.2227 46.5096 15.6267 47.4976 14.132C48.511 12.6373 49.803 11.89 51.3736 11.89C52.083 11.3833 52.919 11.13 53.8816 11.13C54.8696 11.13 55.7816 11.6493 56.6176 12.688C57.4536 13.7267 57.8843 15.082 57.9096 16.754ZM55.4396 18.692L54.0716 18.768C52.9063 18.768 51.9183 18.426 51.1076 17.742C50.297 17.0327 49.8916 16.26 49.8916 15.424C49.8916 14.588 50.031 13.866 50.3096 13.258C49.2203 14.1193 48.6756 15.8167 48.6756 18.35C48.6756 19.566 48.929 20.7313 49.4356 21.846C49.9423 22.9353 50.7403 23.48 51.8296 23.48C52.919 23.48 53.7676 23.024 54.3756 22.112C54.9836 21.1747 55.3383 20.0347 55.4396 18.692ZM53.0836 12.384C52.6783 12.384 52.3616 12.574 52.1336 12.954C51.9056 13.3087 51.7916 13.7013 51.7916 14.132C51.7916 15.0693 52.1083 15.8293 52.7416 16.412C53.4003 16.9947 54.1603 17.286 55.0216 17.286H55.4776C55.427 16.0447 55.2116 14.9173 54.8316 13.904C54.477 12.8907 53.8943 12.384 53.0836 12.384ZM63.1634 15.082L65.2534 14.854C65.4561 14.854 65.6334 14.968 65.7854 15.196C65.9374 15.424 66.0134 15.6647 66.0134 15.918C66.0134 16.1713 65.9248 17.0327 65.7474 18.502C65.5954 19.9713 65.5194 21.1367 65.5194 21.998C65.5194 22.834 65.5954 23.252 65.7474 23.252C66.1781 23.2267 66.7734 22.6947 67.5334 21.656C68.2934 20.592 69.0408 19.2367 69.7754 17.59C70.5354 15.9433 70.9914 15.12 71.1434 15.12C71.3208 15.12 71.4094 15.2213 71.4094 15.424C71.4094 16.1333 71.0421 17.2607 70.3074 18.806C68.3061 23.062 66.6214 25.19 65.2534 25.19C64.2654 25.19 63.5181 24.9873 63.0114 24.582C62.8341 24.4047 62.7454 23.3027 62.7454 21.276C62.7454 19.2493 62.9608 17.514 63.3914 16.07C61.9221 16.07 60.8961 15.6013 60.3134 14.664C60.0094 14.1827 59.8574 13.638 59.8574 13.03C59.8574 12.422 59.9841 11.89 60.2374 11.434C60.4908 10.978 60.8454 10.75 61.3014 10.75C61.7828 10.75 62.2134 11.0033 62.5934 11.51C62.9988 11.9913 63.2014 12.536 63.2014 13.144C63.2014 13.752 63.0241 14.36 62.6694 14.968C62.7708 15.044 62.9354 15.082 63.1634 15.082ZM69.543 21.694L69.771 17.438C69.771 14.7273 69.8976 13.2453 70.151 12.992C70.4043 12.7387 70.8476 12.3713 71.481 11.89C72.1396 11.3833 72.6083 11.13 72.887 11.13C73.191 11.13 73.381 11.1807 73.457 11.282C73.533 11.3833 73.571 11.586 73.571 11.89C73.571 12.9793 73.3303 14.0813 72.849 15.196C72.469 17.5267 72.279 19.4393 72.279 20.934C72.279 22.4287 72.4563 23.176 72.811 23.176C73.419 23.176 74.1156 22.644 74.901 21.58C75.7116 20.4907 76.535 18.8947 77.371 16.792C77.3963 16.2347 77.4216 15.652 77.447 15.044C77.4723 14.4107 77.4976 13.9547 77.523 13.676C77.5483 13.372 77.561 13.1567 77.561 13.03C77.5863 12.9033 77.941 12.5613 78.625 12.004C79.309 11.4213 79.8283 11.13 80.183 11.13C80.563 11.13 80.753 11.6113 80.753 12.574C80.753 12.8273 80.677 13.3213 80.525 14.056C80.3983 14.7907 80.2463 15.3227 80.069 15.652C79.8663 17.4507 79.727 19.0213 79.651 20.364C82.1336 17.2227 83.451 15.5633 83.603 15.386C83.7803 15.2087 83.9323 15.12 84.059 15.12C84.3123 15.12 84.439 15.2467 84.439 15.5C84.439 15.652 84.3883 15.8167 84.287 15.994C83.4763 17.1847 81.8803 19.2747 79.499 22.264C79.347 25.2787 79.2456 27.3307 79.195 28.42C79.0683 31.6373 78.6123 33.892 77.827 35.184C77.067 36.5013 75.699 37.16 73.723 37.16C72.8616 37.16 72.051 36.894 71.291 36.362C70.5563 35.8553 70.189 34.956 70.189 33.664C70.189 32.3973 70.6703 31.0927 71.633 29.75C72.621 28.4073 74.407 26.3427 76.991 23.556L77.219 19.414C76.3576 21.314 75.509 22.758 74.673 23.746C73.837 24.7087 72.9123 25.19 71.899 25.19C70.8856 25.19 70.2396 24.9367 69.961 24.43C69.6823 23.9233 69.543 23.0113 69.543 21.694ZM76.877 25.342C73.989 28.458 72.545 30.9533 72.545 32.828C72.545 33.6893 72.697 34.3987 73.001 34.956C73.305 35.5133 73.723 35.792 74.255 35.792C75.0656 35.792 75.6356 35.3487 75.965 34.462C76.2943 33.5753 76.535 31.7767 76.687 29.066L76.877 25.342ZM101.456 2.998C101.608 2.97266 102.014 2.96 102.672 2.96C103.356 2.96 104.167 3.08666 105.104 3.34C106.067 3.568 106.992 3.96066 107.878 4.518C108.79 5.05 109.512 5.848 110.044 6.912C110.602 7.95067 110.88 9.192 110.88 10.636C110.88 13.0173 109.956 14.9427 108.106 16.412C106.257 17.8813 103.812 18.616 100.772 18.616C100.772 23.556 99.8984 26.026 98.1504 26.026C96.9851 26.026 96.4024 25.532 96.4024 24.544C96.4024 24.24 96.5544 23.822 96.8584 23.29C97.1624 22.758 97.3778 22.15 97.5044 21.466C97.6311 20.782 97.7324 19.68 97.8084 18.16C96.7698 17.8307 96.2504 17.3747 96.2504 16.792C96.2504 16.2093 96.5164 15.918 97.0484 15.918C97.3271 15.918 97.6058 15.956 97.8844 16.032C98.2138 9.268 98.4418 5.53133 98.5684 4.822C97.1244 5.17667 95.9211 5.75933 94.9584 6.57C94.0211 7.38067 93.5524 8.34333 93.5524 9.458C93.5524 10.0913 93.4131 10.5853 93.1344 10.94C92.8811 11.2947 92.5518 11.472 92.1464 11.472C91.3864 11.472 91.0064 11.0413 91.0064 10.18C91.0064 8.48267 91.7538 7.026 93.2484 5.81C94.7684 4.56867 96.6558 3.73267 98.9104 3.302C99.3918 1.68066 100.063 0.869998 100.924 0.869998C101.279 0.869998 101.456 1.57933 101.456 2.998ZM108.03 11.7C108.03 9.42 107.372 7.68467 106.054 6.494C104.762 5.278 103.192 4.632 101.342 4.556C100.962 9.04 100.772 13.258 100.772 17.21C101.127 17.2607 101.406 17.286 101.608 17.286C103.736 17.286 105.332 16.7413 106.396 15.652C107.486 14.5627 108.03 13.2453 108.03 11.7ZM123.296 16.754C124.31 16.4247 125.006 16.146 125.386 15.918C125.792 15.6647 126.096 15.4747 126.298 15.348L126.754 15.082C126.881 15.006 126.982 14.968 127.058 14.968C127.261 14.968 127.362 15.082 127.362 15.31C127.362 15.538 126.97 15.9433 126.184 16.526C125.399 17.0833 124.424 17.59 123.258 18.046C123.081 20.174 122.41 21.8967 121.244 23.214C120.079 24.5313 118.42 25.19 116.266 25.19C114.696 25.19 113.492 24.5693 112.656 23.328C111.82 22.0613 111.402 20.592 111.402 18.92C111.402 17.2227 111.896 15.6267 112.884 14.132C113.898 12.6373 115.19 11.89 116.76 11.89C117.47 11.3833 118.306 11.13 119.268 11.13C120.256 11.13 121.168 11.6493 122.004 12.688C122.84 13.7267 123.271 15.082 123.296 16.754ZM120.826 18.692L119.458 18.768C118.293 18.768 117.305 18.426 116.494 17.742C115.684 17.0327 115.278 16.26 115.278 15.424C115.278 14.588 115.418 13.866 115.696 13.258C114.607 14.1193 114.062 15.8167 114.062 18.35C114.062 19.566 114.316 20.7313 114.822 21.846C115.329 22.9353 116.127 23.48 117.216 23.48C118.306 23.48 119.154 23.024 119.762 22.112C120.37 21.1747 120.725 20.0347 120.826 18.692ZM118.47 12.384C118.065 12.384 117.748 12.574 117.52 12.954C117.292 13.3087 117.178 13.7013 117.178 14.132C117.178 15.0693 117.495 15.8293 118.128 16.412C118.787 16.9947 119.547 17.286 120.408 17.286H120.864C120.814 16.0447 120.598 14.9173 120.218 13.904C119.864 12.8907 119.281 12.384 118.47 12.384ZM126.65 6.418C126.65 5.962 126.891 5.56933 127.372 5.24C127.853 4.91066 128.284 4.746 128.664 4.746C129.348 4.746 129.69 5.13866 129.69 5.924C129.69 6.70933 129.487 7.39333 129.082 7.976C128.677 8.53333 128.107 8.812 127.372 8.812C126.891 8.812 126.65 8.014 126.65 6.418ZM127.752 25.19C126.764 25.19 126.017 24.9873 125.51 24.582C125.333 24.4047 125.244 23.7713 125.244 22.682C125.244 21.5927 125.32 19.7813 125.472 17.248C125.649 14.6893 125.801 13.3087 125.928 13.106C126.055 12.9033 126.447 12.5233 127.106 11.966C127.765 11.4087 128.271 11.13 128.626 11.13C129.006 11.13 129.196 11.6113 129.196 12.574C129.196 12.8273 129.12 13.3213 128.968 14.056C128.841 14.7907 128.689 15.3227 128.512 15.652C128.183 16.488 128.018 18.6793 128.018 22.226C128.018 22.91 128.094 23.252 128.246 23.252C128.677 23.2267 129.272 22.6947 130.032 21.656C130.792 20.592 131.539 19.2367 132.274 17.59C133.034 15.9433 133.49 15.12 133.642 15.12C133.819 15.12 133.908 15.2213 133.908 15.424C133.908 16.1333 133.541 17.2607 132.806 18.806C130.805 23.062 129.12 25.19 127.752 25.19ZM134.851 22.948L134.889 24.126C134.889 24.8353 134.686 25.19 134.281 25.19C133.673 25.19 133.09 25.114 132.533 24.962C131.975 24.7847 131.697 24.5567 131.697 24.278C131.697 23.974 131.76 22.9733 131.887 21.276C132.039 19.5533 132.115 18.2613 132.115 17.4V15.158C132.115 13.942 132.241 13.2073 132.495 12.954C132.748 12.7007 133.191 12.3333 133.825 11.852C134.483 11.3707 134.952 11.13 135.231 11.13C135.535 11.13 135.725 11.1807 135.801 11.282C135.877 11.3833 135.915 11.5733 135.915 11.852C135.915 13.1947 135.661 14.4613 135.155 15.652C135.028 17.096 134.965 18.0967 134.965 18.654C135.066 18.502 135.598 17.6407 136.561 16.07C137.523 14.4993 138.334 13.3467 138.993 12.612C139.677 11.8773 140.285 11.51 140.817 11.51C141.349 11.51 141.817 11.6873 142.223 12.042C142.653 12.3967 142.869 12.84 142.869 13.372C142.869 14.4867 142.742 16.1333 142.489 18.312C142.261 20.4653 142.147 21.8333 142.147 22.416C142.147 22.9733 142.223 23.252 142.375 23.252C142.805 23.2267 143.401 22.6947 144.161 21.656C144.921 20.592 145.668 19.2367 146.403 17.59C147.163 15.9433 147.619 15.12 147.771 15.12C147.948 15.12 148.037 15.2213 148.037 15.424C148.037 16.1333 147.669 17.2607 146.935 18.806C144.933 23.062 143.249 25.19 141.881 25.19C140.893 25.19 140.145 24.9873 139.639 24.582C139.461 24.4047 139.373 23.9487 139.373 23.214C139.373 22.454 139.436 21.238 139.563 19.566C139.715 17.8687 139.791 16.602 139.791 15.766C139.791 14.93 139.639 14.512 139.335 14.512C139.056 14.512 138.296 15.386 137.055 17.134C135.813 18.8567 135.155 19.9587 135.079 20.44C134.927 21.3267 134.851 22.1627 134.851 22.948ZM154.5 18.806C152.499 23.062 150.802 25.19 149.408 25.19C148.04 25.19 147.23 25.0253 146.976 24.696C146.748 24.3667 146.634 23.2773 146.634 21.428C146.634 19.5787 146.812 16.906 147.166 13.41C145.9 13.1567 145.228 12.6373 145.152 11.852C145.152 11.4467 145.418 11.244 145.95 11.244C146.482 11.244 146.951 11.3453 147.356 11.548C147.584 9.724 147.85 7.87467 148.154 6C148.23 5.51867 148.471 5.06267 148.876 4.632C149.282 4.20133 149.674 3.986 150.054 3.986C150.384 3.986 150.548 4.50533 150.548 5.544C150.548 6.02533 150.371 8.242 150.016 12.194C150.7 12.0673 151.448 11.814 152.258 11.434C153.094 11.054 153.588 10.864 153.74 10.864C154.196 10.864 154.424 11.0033 154.424 11.282C154.45 11.5353 153.981 11.89 153.018 12.346C152.056 12.7767 151.017 13.106 149.902 13.334C149.598 17.0327 149.446 19.832 149.446 21.732C149.446 22.7453 149.598 23.252 149.902 23.252C150.358 23.2267 150.966 22.6947 151.726 21.656C152.486 20.6173 153.234 19.2747 153.968 17.628C154.728 15.956 155.184 15.12 155.336 15.12C155.514 15.12 155.602 15.2213 155.602 15.424C155.602 16.1333 155.235 17.2607 154.5 18.806Z" fill="#059669"/>
</svg>
